<svg width="21" height="20" viewBox="0 0 21 20" fill="none" xmlns="http://www.w3.org/2000/svg">
<path d="M10.125 15.7917C7.94166 15.7917 6.16666 14.0167 6.16666 11.8333C6.16666 9.65 7.94166 7.875 10.125 7.875C12.3083 7.875 14.0833 9.65 14.0833 11.8333C14.0833 14.0167 12.3083 15.7917 10.125 15.7917ZM10.125 9.125C8.63332 9.125 7.41666 10.3417 7.41666 11.8333C7.41666 13.325 8.63332 14.5417 10.125 14.5417C11.6167 14.5417 12.8333 13.325 12.8333 11.8333C12.8333 10.3417 11.6167 9.125 10.125 9.125Z" fill="#86909C"/>
<path d="M9.65834 13.1917C9.39167 13.1917 9.125 13.0917 8.925 12.8917L8.38334 12.35C8.14167 12.1083 8.14167 11.7083 8.38334 11.4667C8.625 11.225 9.025 11.225 9.26667 11.4667L9.66667 11.8667L11.0083 10.6333C11.2583 10.4 11.6583 10.4167 11.8917 10.6667C12.125 10.9167 12.1083 11.3167 11.8583 11.55L10.375 12.9167C10.1667 13.1 9.91667 13.1917 9.65834 13.1917Z" fill="#86909C"/>
<path d="M13.4583 18.9583H6.79165C2.94165 18.9583 2.22499 17.1667 2.04165 15.425L1.41665 8.75C1.32499 7.875 1.29999 6.58333 2.16665 5.61666C2.91665 4.78333 4.15832 4.38333 5.95832 4.38333H14.2917C16.1 4.38333 17.3417 4.79166 18.0833 5.61666C18.95 6.58333 18.925 7.875 18.8333 8.75833L18.2083 15.4167C18.025 17.1667 17.3083 18.9583 13.4583 18.9583ZM5.95832 5.625C4.54999 5.625 3.58332 5.9 3.09165 6.45C2.68332 6.9 2.54999 7.59166 2.65832 8.625L3.28332 15.3C3.42499 16.6167 3.78332 17.7083 6.79165 17.7083H13.4583C16.4583 17.7083 16.825 16.6167 16.9667 15.2917L17.5917 8.63333C17.7 7.59166 17.5667 6.9 17.1583 6.45C16.6667 5.9 15.7 5.625 14.2917 5.625H5.95832Z" fill="#86909C"/>
<path d="M13.4583 5.62499C13.1167 5.62499 12.8333 5.34166 12.8333 4.99999V4.33332C12.8333 2.84999 12.8333 2.29166 10.7917 2.29166H9.45832C7.41666 2.29166 7.41666 2.84999 7.41666 4.33332V4.99999C7.41666 5.34166 7.13332 5.62499 6.79166 5.62499C6.44999 5.62499 6.16666 5.34166 6.16666 4.99999V4.33332C6.16666 2.86666 6.16666 1.04166 9.45832 1.04166H10.7917C14.0833 1.04166 14.0833 2.86666 14.0833 4.33332V4.99999C14.0833 5.34166 13.8 5.62499 13.4583 5.62499Z" fill="#86909C"/>
<path d="M13.4667 11.9917C13.1833 11.9917 12.9333 11.8 12.8583 11.5167C12.775 11.1833 12.975 10.8417 13.3083 10.7583C14.9333 10.35 16.4417 9.64166 17.7917 8.65833C18.0667 8.45833 18.4583 8.51666 18.6667 8.8C18.8667 9.075 18.8083 9.46666 18.525 9.675C17.0417 10.75 15.3917 11.525 13.6083 11.975C13.5667 11.9833 13.5167 11.9917 13.4667 11.9917Z" fill="#86909C"/>
<path d="M6.79166 12.0167C6.74166 12.0167 6.69166 12.0083 6.64166 12C4.96666 11.5917 3.39166 10.8833 1.94999 9.9C1.66666 9.70834 1.59166 9.31667 1.78333 9.03334C1.97499 8.75 2.36666 8.675 2.64999 8.86667C3.96666 9.76667 5.39999 10.4083 6.93333 10.7833C7.26666 10.8667 7.47499 11.2 7.39166 11.5417C7.33333 11.825 7.07499 12.0167 6.79166 12.0167Z" fill="#86909C"/>
</svg>
