<svg width="28" height="29" viewBox="0 0 28 29" fill="none" xmlns="http://www.w3.org/2000/svg">
<path d="M19.3118 12.7452C19.3118 13.0369 19.1959 13.3166 18.9897 13.5228C18.7835 13.729 18.5037 13.8449 18.2121 13.8449H8.86495C8.5733 13.8449 8.29359 13.729 8.08737 13.5228C7.88114 13.3166 7.76528 13.0369 7.76528 12.7452C7.76528 12.4536 7.88114 12.1739 8.08737 11.9677C8.29359 11.7614 8.5733 11.6456 8.86495 11.6456H18.2121C18.5037 11.6456 18.7835 11.7614 18.9897 11.9677C19.1959 12.1739 19.3118 12.4536 19.3118 12.7452ZM18.2121 16.0442H8.86495C8.5733 16.0442 8.29359 16.1601 8.08737 16.3663C7.88114 16.5725 7.76528 16.8523 7.76528 17.1439C7.76528 17.4355 7.88114 17.7153 8.08737 17.9215C8.29359 18.1277 8.5733 18.2436 8.86495 18.2436H18.2121C18.5037 18.2436 18.7835 18.1277 18.9897 17.9215C19.1959 17.7153 19.3118 17.4355 19.3118 17.1439C19.3118 16.8523 19.1959 16.5725 18.9897 16.3663C18.7835 16.1601 18.5037 16.0442 18.2121 16.0442ZM27.5592 14.3947C27.5552 18.0391 26.1057 21.5331 23.5288 24.1101C20.9518 26.687 17.4578 28.1365 13.8134 28.1405H2.26696C1.68366 28.1405 1.12425 27.9088 0.711796 27.4964C0.299341 27.0839 0.067627 26.5245 0.067627 25.9412V14.3947C0.067627 10.7491 1.51584 7.25282 4.09368 4.67498C6.67152 2.09714 10.1678 0.648926 13.8134 0.648926C17.4591 0.648926 20.9554 2.09714 23.5332 4.67498C26.111 7.25282 27.5592 10.7491 27.5592 14.3947ZM25.3599 14.3947C25.3599 11.3324 24.1434 8.39553 21.978 6.23014C19.8126 4.06476 16.8758 2.84826 13.8134 2.84826C10.7511 2.84826 7.81423 4.06476 5.64884 6.23014C3.48346 8.39553 2.26696 11.3324 2.26696 14.3947V25.9412H13.8134C16.8748 25.9379 19.8097 24.7204 21.9744 22.5557C24.1391 20.391 25.3566 17.456 25.3599 14.3947Z" fill="#484C52"/>
</svg>
