<svg width="25" height="24" viewBox="0 0 25 24" fill="none" xmlns="http://www.w3.org/2000/svg">
<path d="M17.625 22.75H7.625C3.215 22.75 1.875 21.41 1.875 17V7C1.875 2.59 3.215 1.25 7.625 1.25H9.125C10.875 1.25 11.425 1.82 12.125 2.75L13.625 4.75C13.955 5.19 14.005 5.25 14.625 5.25H17.625C22.035 5.25 23.375 6.59 23.375 11V17C23.375 21.41 22.035 22.75 17.625 22.75ZM7.625 2.75C4.045 2.75 3.375 3.43 3.375 7V17C3.375 20.57 4.045 21.25 7.625 21.25H17.625C21.205 21.25 21.875 20.57 21.875 17V11C21.875 7.43 21.205 6.75 17.625 6.75H14.625C13.345 6.75 12.925 6.31 12.425 5.65L10.925 3.65C10.405 2.96 10.245 2.75 9.125 2.75H7.625V2.75Z" fill="#86909C"/>
</svg>
