<svg width="65" height="25" viewBox="0 0 65 25" fill="none" xmlns="http://www.w3.org/2000/svg">
<g filter="url(#filter0_dddd_62_3747)">
<rect x="1" y="0.880692" width="17.01" height="17.01" rx="3.52742" fill="#081EFB"/>
<path d="M15.9327 9.3862V10.0933C15.1469 9.93222 14.3335 9.96863 13.5653 10.1992C12.797 10.4298 12.098 10.8474 11.5309 11.4146C10.9637 11.9818 10.5461 12.6808 10.3155 13.449C10.0849 14.2173 10.0485 15.0307 10.2095 15.8165H9.50244V9.3862H15.9327Z" fill="white"/>
<path d="M3.07727 9.38721V8.68015C3.40051 8.74769 3.72988 8.78154 4.06009 8.78115C4.69574 8.78129 5.32519 8.65622 5.9125 8.41309C6.49982 8.16996 7.03349 7.81353 7.48305 7.36416C7.93262 6.91478 8.28927 6.38125 8.53264 5.79404C8.77602 5.20683 8.90135 4.57743 8.90148 3.94179C8.90143 3.61126 8.86759 3.2816 8.80047 2.95795H9.50754V9.38721H3.07727Z" fill="white"/>
</g>
<path d="M23.5454 8.10898H26.2363V9.00001H22.1286V8.29609L24.7393 5.13294H22.1821V4.24191H26.165V4.94583L23.5454 8.10898ZM31.6663 6.64769C31.6663 6.73679 31.6574 6.87045 31.6485 6.97737H27.9151C28.0488 7.67237 28.6279 8.11789 29.4566 8.11789C29.9912 8.11789 30.41 7.94859 30.7486 7.60109L31.3456 8.28718C30.9179 8.79507 30.2496 9.06238 29.4298 9.06238C27.8349 9.06238 26.8013 8.0377 26.8013 6.62096C26.8013 5.20422 27.8438 4.18845 29.2606 4.18845C30.6506 4.18845 31.6663 5.15967 31.6663 6.64769ZM29.2606 5.07948C28.5388 5.07948 28.0131 5.54282 27.9062 6.23782H30.606C30.5169 5.55173 29.9912 5.07948 29.2606 5.07948ZM35.436 4.18845C36.5765 4.18845 37.423 4.8389 37.423 6.27346V9.00001H36.3092V6.41602C36.3092 5.56955 35.8904 5.15967 35.1776 5.15967C34.3846 5.15967 33.85 5.64083 33.85 6.59423V9.00001H32.7362V4.24191H33.7965V4.85672C34.1618 4.42012 34.741 4.18845 35.436 4.18845ZM39.3973 3.45781C38.9874 3.45781 38.6844 3.16377 38.6844 2.78954C38.6844 2.4153 38.9874 2.12126 39.3973 2.12126C39.8071 2.12126 40.1101 2.39748 40.1101 2.76281C40.1101 3.15486 39.816 3.45781 39.3973 3.45781ZM38.8359 9.00001V4.24191H39.9497V9.00001H38.8359ZM43.9599 7.94859L44.2717 8.74161C44.0044 8.95546 43.6035 9.06238 43.2025 9.06238C42.16 9.06238 41.563 8.50994 41.563 7.45853V5.16858H40.7789V4.27755H41.563V3.1905H42.6768V4.27755H43.951V5.16858H42.6768V7.4318C42.6768 7.89513 42.9085 8.14462 43.3362 8.14462C43.5678 8.14462 43.7906 8.08225 43.9599 7.94859ZM47.8878 4.18845C49.0283 4.18845 49.8748 4.8389 49.8748 6.27346V9.00001H48.761V6.41602C48.761 5.56955 48.3422 5.15967 47.6294 5.15967C46.8364 5.15967 46.3018 5.64083 46.3018 6.59423V9.00001H45.188V2.38857H46.3018V4.79435C46.6671 4.4023 47.2284 4.18845 47.8878 4.18845Z" fill="#1E1E1E"/>
<path d="M24.3384 11.9598C25.7106 11.9598 26.5036 12.6103 26.5036 13.9825V16.7714H25.4522V16.1922C25.1849 16.6021 24.6681 16.8338 23.9552 16.8338C22.8682 16.8338 22.1821 16.2368 22.1821 15.4081C22.1821 14.6151 22.7167 13.9914 24.1602 13.9914H25.3898V13.9201C25.3898 13.2696 24.9977 12.8865 24.2047 12.8865C23.6701 12.8865 23.1177 13.0647 22.7613 13.3587L22.3247 12.5479C22.8325 12.1559 23.5721 11.9598 24.3384 11.9598ZM24.1869 16.0229C24.7304 16.0229 25.2027 15.7734 25.3898 15.2834V14.7309H24.2404C23.483 14.7309 23.2781 15.0161 23.2781 15.3636C23.2781 15.7645 23.6166 16.0229 24.1869 16.0229ZM30.1595 16.8338C28.6537 16.8338 27.5844 15.818 27.5844 14.3923C27.5844 12.9667 28.6537 11.9598 30.1595 11.9598C31.0862 11.9598 31.8257 12.343 32.1911 13.0647L31.3357 13.5637C31.0505 13.1093 30.6229 12.9043 30.1506 12.9043C29.3309 12.9043 28.7071 13.4746 28.7071 14.3923C28.7071 15.319 29.3309 15.8804 30.1506 15.8804C30.6229 15.8804 31.0505 15.6754 31.3357 15.221L32.1911 15.72C31.8257 16.4328 31.0862 16.8338 30.1595 16.8338ZM34.9716 11.9598C36.3437 11.9598 37.1368 12.6103 37.1368 13.9825V16.7714H36.0853V16.1922C35.818 16.6021 35.3012 16.8338 34.5884 16.8338C33.5014 16.8338 32.8153 16.2368 32.8153 15.4081C32.8153 14.6151 33.3499 13.9914 34.7934 13.9914H36.023V13.9201C36.023 13.2696 35.6309 12.8865 34.8379 12.8865C34.3033 12.8865 33.7508 13.0647 33.3944 13.3587L32.9578 12.5479C33.4657 12.1559 34.2053 11.9598 34.9716 11.9598ZM34.8201 16.0229C35.3636 16.0229 35.8359 15.7734 36.023 15.2834V14.7309H34.8735C34.1162 14.7309 33.9112 15.0161 33.9112 15.3636C33.9112 15.7645 34.2498 16.0229 34.8201 16.0229ZM42.156 10.16H43.2698V16.7714H42.2005V16.1566C41.8263 16.611 41.2738 16.8338 40.6234 16.8338C39.2423 16.8338 38.2176 15.8714 38.2176 14.3923C38.2176 12.9132 39.2423 11.9598 40.6234 11.9598C41.2382 11.9598 41.7817 12.1648 42.156 12.6014V10.16ZM40.7571 15.8804C41.559 15.8804 42.1738 15.3012 42.1738 14.3923C42.1738 13.4835 41.559 12.9043 40.7571 12.9043C39.9551 12.9043 39.3403 13.4835 39.3403 14.3923C39.3403 15.3012 39.9551 15.8804 40.7571 15.8804ZM49.1998 14.4191C49.1998 14.5082 49.1908 14.6418 49.1819 14.7487H45.4485C45.5822 15.4438 46.1613 15.8893 46.99 15.8893C47.5246 15.8893 47.9434 15.72 48.282 15.3725L48.879 16.0586C48.4513 16.5664 47.783 16.8338 46.9633 16.8338C45.3683 16.8338 44.3347 15.8091 44.3347 14.3923C44.3347 12.9756 45.3772 11.9598 46.794 11.9598C48.184 11.9598 49.1998 12.9311 49.1998 14.4191ZM46.794 12.8509C46.0722 12.8509 45.5465 13.3142 45.4396 14.0092H48.1394C48.0503 13.3231 47.5246 12.8509 46.794 12.8509ZM56.2752 11.9598C57.4246 11.9598 58.2265 12.6103 58.2265 14.0448V16.7714H57.1127V14.1874C57.1127 13.3409 56.7207 12.9311 56.0435 12.9311C55.3128 12.9311 54.805 13.4122 54.805 14.3567V16.7714H53.6912V14.1874C53.6912 13.3409 53.2991 12.9311 52.6219 12.9311C51.8824 12.9311 51.3834 13.4122 51.3834 14.3567V16.7714H50.2696V12.0133H51.3299V12.6192C51.6864 12.1915 52.2388 11.9598 52.8892 11.9598C53.5842 11.9598 54.1634 12.2182 54.4931 12.7528C54.8762 12.2628 55.5178 11.9598 56.2752 11.9598ZM62.9487 12.0133H64.0179L61.7903 17.1545C61.3537 18.2327 60.7478 18.5624 59.9548 18.5624C59.4826 18.5624 58.9836 18.402 58.6807 18.1257L59.1262 17.306C59.34 17.5109 59.643 17.6357 59.9459 17.6357C60.338 17.6357 60.5696 17.4486 60.7835 16.9763L60.8637 16.7892L58.7876 12.0133H59.9459L61.4428 15.5329L62.9487 12.0133Z" fill="#1E1E1E"/>
<defs>
<filter id="filter0_dddd_62_3747" x="0.412097" y="0.331982" width="23.9081" height="24.496" filterUnits="userSpaceOnUse" color-interpolation-filters="sRGB">
<feFlood flood-opacity="0" result="BackgroundImageFix"/>
<feColorMatrix in="SourceAlpha" type="matrix" values="0 0 0 0 0 0 0 0 0 0 0 0 0 0 0 0 0 0 127 0" result="hardAlpha"/>
<feOffset dx="0.235161" dy="0.274355"/>
<feGaussianBlur stdDeviation="0.411532"/>
<feColorMatrix type="matrix" values="0 0 0 0 0 0 0 0 0 0 0 0 0 0 0 0 0 0 0.1 0"/>
<feBlend mode="normal" in2="BackgroundImageFix" result="effect1_dropShadow_62_3747"/>
<feColorMatrix in="SourceAlpha" type="matrix" values="0 0 0 0 0 0 0 0 0 0 0 0 0 0 0 0 0 0 127 0" result="hardAlpha"/>
<feOffset dx="0.979839" dy="1.13661"/>
<feGaussianBlur stdDeviation="0.744677"/>
<feColorMatrix type="matrix" values="0 0 0 0 0 0 0 0 0 0 0 0 0 0 0 0 0 0 0.09 0"/>
<feBlend mode="normal" in2="effect1_dropShadow_62_3747" result="effect2_dropShadow_62_3747"/>
<feColorMatrix in="SourceAlpha" type="matrix" values="0 0 0 0 0 0 0 0 0 0 0 0 0 0 0 0 0 0 127 0" result="hardAlpha"/>
<feOffset dx="2.19484" dy="2.54758"/>
<feGaussianBlur stdDeviation="1.01903"/>
<feColorMatrix type="matrix" values="0 0 0 0 0 0 0 0 0 0 0 0 0 0 0 0 0 0 0.05 0"/>
<feBlend mode="normal" in2="effect2_dropShadow_62_3747" result="effect3_dropShadow_62_3747"/>
<feColorMatrix in="SourceAlpha" type="matrix" values="0 0 0 0 0 0 0 0 0 0 0 0 0 0 0 0 0 0 127 0" result="hardAlpha"/>
<feOffset dx="3.91935" dy="4.54645"/>
<feGaussianBlur stdDeviation="1.1954"/>
<feColorMatrix type="matrix" values="0 0 0 0 0 0 0 0 0 0 0 0 0 0 0 0 0 0 0.01 0"/>
<feBlend mode="normal" in2="effect3_dropShadow_62_3747" result="effect4_dropShadow_62_3747"/>
<feBlend mode="normal" in="SourceGraphic" in2="effect4_dropShadow_62_3747" result="shape"/>
</filter>
</defs>
</svg>
