<svg width="100" height="91" viewBox="0 0 100 91" fill="none" xmlns="http://www.w3.org/2000/svg">
<path d="M50 41.4094V70.0502C49.9918 72.6956 49.4125 75.3124 48.2968 77.7434C47.1812 80.1745 45.5522 82.3699 43.5074 84.198C41.4626 86.0261 39.0442 87.4493 36.3971 88.3823C33.75 89.3153 30.9287 89.7388 28.1024 89.6275C25.276 89.5163 22.5028 88.8724 19.9489 87.7347C17.395 86.5969 15.1131 84.9887 13.2399 83.0063C11.3667 81.0239 9.94073 78.7082 9.04755 76.198C8.15438 73.6878 7.81234 71.0349 8.04196 68.3981C3.66796 64.0046 0.90625 55.4124 0.90625 48.2414C0.90625 38.4732 6.03625 28.972 13.3803 25.2278C12.9824 21.8159 13.687 18.3708 15.4032 15.337C17.1194 12.3033 19.7684 9.82019 23.0084 8.20814C26.2484 6.59608 29.9306 5.92908 33.5799 6.29321C37.2292 6.65734 40.6781 8.03588 43.4814 10.2509" stroke="white" stroke-linecap="round" stroke-linejoin="round"/>
<path d="M23.0848 36.9077C20.3848 36.3306 14.2828 32.5792 13.3648 25.2783M13.6656 58.0961C10.9193 60.1233 8.72849 64.7116 8.02649 68.3909M49.9999 70.0502C50.0081 72.6957 50.5874 75.3124 51.703 77.7435C52.8187 80.1745 54.4477 82.3699 56.4925 84.198C58.5373 86.0262 60.9557 87.4494 63.6028 88.3823C66.2499 89.3153 69.0712 89.7388 71.8975 89.6276C74.7239 89.5163 77.4971 88.8725 80.051 87.7347C82.6048 86.5969 84.8868 84.9887 86.76 83.0063C88.6332 81.0239 90.0592 78.7082 90.9523 76.198C91.8455 73.6879 92.1875 71.0349 91.9579 68.3981C96.3319 64.0046 99.0859 55.4124 99.0859 48.2414C99.0859 45.1104 98.5613 42.0082 97.6048 39.1081" stroke="white" stroke-linecap="round" stroke-linejoin="round"/>
<path d="M86.3342 58.0961C89.0805 60.1233 91.2713 64.7116 91.9733 68.3909M50.4936 26.0719C47.7936 25.6246 47.7936 21.9958 50.4936 21.5558C55.2877 20.7731 59.7245 18.6746 63.2398 15.5272C66.755 12.3799 69.1898 8.32582 70.2345 3.88076L70.3965 3.18098C70.9828 0.677619 74.7936 0.655977 75.4031 3.15933L75.5959 3.97455C76.674 8.40241 79.1287 12.433 82.6511 15.559C86.1735 18.6849 90.6061 20.7664 95.3908 21.5413C98.1139 21.9814 98.1139 25.639 95.3908 26.0863C90.6061 26.8613 86.1735 28.9428 82.6511 32.0687C79.1287 35.1946 76.674 39.2253 75.5959 43.6531L75.4031 44.4611C74.7859 46.9573 70.9828 46.9428 70.3965 44.4395L70.2345 43.7469C69.1898 39.3018 66.755 35.2478 63.2398 32.1004C59.7245 28.953 55.2877 26.8546 50.4936 26.0719Z" stroke="white" stroke-linecap="round" stroke-linejoin="round"/>
</svg>
