<svg width="64" height="54" viewBox="0 0 64 54" fill="none" xmlns="http://www.w3.org/2000/svg">
<g clip-path="url(#clip0_994_676)">
<path d="M35.0556 33.6135C34.4612 33.6135 33.8912 33.8496 33.4709 34.2699C33.0506 34.6902 32.8144 35.2602 32.8144 35.8546V42.5782C32.8144 44.3613 32.1061 46.0715 30.8452 47.3324C29.5843 48.5933 27.8741 49.3017 26.0909 49.3017H20.5418C18.7586 49.3017 17.0485 48.5933 15.7876 47.3324C14.5266 46.0715 13.8183 44.3613 13.8183 42.5782V11.2018C13.8183 9.41858 14.5266 7.70843 15.7876 6.44752C17.0485 5.18662 18.7586 4.47825 20.5418 4.47825H26.0909C27.8741 4.47825 29.5843 5.18662 30.8452 6.44752C32.1061 7.70843 32.8144 9.41858 32.8144 11.2018V17.9253C32.8144 18.5197 33.0506 19.0897 33.4709 19.51C33.8912 19.9303 34.4612 20.1664 35.0556 20.1664C35.65 20.1664 36.2201 19.9303 36.6404 19.51C37.0607 19.0897 37.2968 18.5197 37.2968 17.9253V11.2018C37.2932 8.23088 36.1115 5.38269 34.0107 3.28196C31.91 1.18123 29.0618 -0.000530696 26.0909 -0.00408936H20.5418C17.5709 -0.000530696 14.7227 1.18123 12.622 3.28196C10.5213 5.38269 9.3395 8.23088 9.33594 11.2018L9.33594 42.5782C9.3395 45.549 10.5213 48.3972 12.622 50.498C14.7227 52.5987 17.5709 53.7804 20.5418 53.784H26.0909C29.0618 53.7804 31.91 52.5987 34.0107 50.498C36.1115 48.3972 37.2932 45.549 37.2968 42.5782V35.8546C37.2968 35.2602 37.0607 34.6902 36.6404 34.2699C36.2201 33.8496 35.65 33.6135 35.0556 33.6135Z" fill="white"/>
<path d="M60.5821 22.1364L50.3041 11.8584C50.0973 11.6443 49.85 11.4736 49.5766 11.3561C49.3031 11.2387 49.0091 11.1769 48.7115 11.1743C48.4139 11.1717 48.1188 11.2284 47.8434 11.3411C47.5679 11.4538 47.3177 11.6202 47.1073 11.8306C46.8968 12.041 46.7304 12.2913 46.6177 12.5667C46.505 12.8421 46.4483 13.1373 46.4509 13.4348C46.4535 13.7324 46.5153 14.0265 46.6328 14.2999C46.7502 14.5734 46.921 14.8207 47.135 15.0274L56.6869 24.5815L22.7802 24.6488C22.1858 24.6488 21.6158 24.8849 21.1955 25.3052C20.7752 25.7255 20.5391 26.2955 20.5391 26.8899C20.5391 27.4843 20.7752 28.0544 21.1955 28.4747C21.6158 28.895 22.1858 29.1311 22.7802 29.1311L56.8191 29.0616L47.1306 38.7524C46.9165 38.9592 46.7458 39.2065 46.6283 39.4799C46.5108 39.7534 46.449 40.0474 46.4464 40.345C46.4439 40.6426 46.5006 40.9377 46.6132 41.2131C46.7259 41.4886 46.8923 41.7388 47.1028 41.9492C47.3132 42.1597 47.5634 42.3261 47.8389 42.4388C48.1143 42.5515 48.4094 42.6082 48.707 42.6056C49.0046 42.603 49.2987 42.5412 49.5721 42.4237C49.8455 42.3063 50.0928 42.1355 50.2996 41.9215L60.5776 31.6435C61.8386 30.3832 62.5475 28.6737 62.5484 26.8909C62.5492 25.108 61.8419 23.3978 60.5821 22.1364Z" fill="white"/>
</g>
<defs>
<clipPath id="clip0_994_676">
<rect width="53.7881" height="53.7881" fill="white" transform="translate(9.33594 -0.00402832)"/>
</clipPath>
</defs>
</svg>
