<svg width="65" height="25" viewBox="0 0 65 25" fill="none" xmlns="http://www.w3.org/2000/svg">
<g filter="url(#filter0_dddd_58_2896)">
<rect x="1" y="0.880676" width="17.01" height="17.01" rx="3.52742" fill="white"/>
<path d="M15.9327 9.3862V10.0933C15.147 9.93222 14.3335 9.96863 13.5653 10.1992C12.797 10.4298 12.098 10.8474 11.5309 11.4146C10.9637 11.9818 10.5461 12.6808 10.3155 13.449C10.0849 14.2173 10.0485 15.0307 10.2095 15.8165H9.50245V9.3862H15.9327Z" fill="#081EFB"/>
<path d="M3.07726 9.3872V8.68014C3.40049 8.74768 3.72986 8.78153 4.06008 8.78115C4.69573 8.78128 5.32518 8.65621 5.91249 8.41308C6.4998 8.16995 7.03347 7.81352 7.48304 7.36415C7.9326 6.91477 8.28925 6.38125 8.53263 5.79404C8.776 5.20682 8.90133 4.57743 8.90147 3.94178C8.90142 3.61125 8.86757 3.28159 8.80046 2.95795H9.50752V9.3872H3.07726Z" fill="#081EFB"/>
</g>
<path d="M23.5453 8.10897H26.2362V9H22.1286V8.29609L24.7393 5.13293H22.1821V4.24191H26.165V4.94582L23.5453 8.10897ZM31.6663 6.64768C31.6663 6.73679 31.6574 6.87044 31.6485 6.97736H27.9151C28.0487 7.67237 28.6279 8.11788 29.4565 8.11788C29.9912 8.11788 30.4099 7.94859 30.7485 7.60108L31.3455 8.28718C30.9178 8.79506 30.2496 9.06237 29.4298 9.06237C27.8349 9.06237 26.8013 8.03769 26.8013 6.62095C26.8013 5.20422 27.8438 4.18844 29.2605 4.18844C30.6505 4.18844 31.6663 5.15967 31.6663 6.64768ZM29.2605 5.07947C28.5388 5.07947 28.0131 5.54281 27.9061 6.23781H30.606C30.5169 5.55172 29.9912 5.07947 29.2605 5.07947ZM35.436 4.18844C36.5765 4.18844 37.423 4.8389 37.423 6.27345V9H36.3092V6.41602C36.3092 5.56954 35.8904 5.15967 35.1776 5.15967C34.3846 5.15967 33.8499 5.64082 33.8499 6.59422V9H32.7362V4.24191H33.7965V4.85672C34.1618 4.42011 34.741 4.18844 35.436 4.18844ZM39.3972 3.4578C38.9873 3.4578 38.6844 3.16376 38.6844 2.78953C38.6844 2.4153 38.9873 2.12126 39.3972 2.12126C39.8071 2.12126 40.11 2.39748 40.11 2.7628C40.11 3.15485 39.816 3.4578 39.3972 3.4578ZM38.8359 9V4.24191H39.9497V9H38.8359ZM43.9598 7.94859L44.2717 8.7416C44.0044 8.95545 43.6034 9.06237 43.2025 9.06237C42.16 9.06237 41.563 8.50993 41.563 7.45852V5.16858H40.7789V4.27755H41.563V3.19049H42.6768V4.27755H43.9509V5.16858H42.6768V7.43179C42.6768 7.89512 42.9084 8.14461 43.3361 8.14461C43.5678 8.14461 43.7905 8.08224 43.9598 7.94859ZM47.8878 4.18844C49.0283 4.18844 49.8747 4.8389 49.8747 6.27345V9H48.761V6.41602C48.761 5.56954 48.3422 5.15967 47.6294 5.15967C46.8363 5.15967 46.3017 5.64082 46.3017 6.59422V9H45.1879V2.38857H46.3017V4.79434C46.667 4.40229 47.2284 4.18844 47.8878 4.18844Z" fill="white"/>
<path d="M24.3383 11.9598C25.7105 11.9598 26.5035 12.6103 26.5035 13.9825V16.7714H25.4521V16.1922C25.1848 16.6021 24.668 16.8338 23.9552 16.8338C22.8681 16.8338 22.182 16.2368 22.182 15.4081C22.182 14.6151 22.7166 13.9914 24.1601 13.9914H25.3897V13.9201C25.3897 13.2696 24.9977 12.8865 24.2047 12.8865C23.67 12.8865 23.1176 13.0647 22.7612 13.3588L22.3246 12.5479C22.8325 12.1559 23.572 11.9598 24.3383 11.9598ZM24.1868 16.0229C24.7304 16.0229 25.2026 15.7734 25.3897 15.2834V14.7309H24.2403C23.4829 14.7309 23.278 15.0161 23.278 15.3636C23.278 15.7645 23.6166 16.0229 24.1868 16.0229ZM30.1594 16.8338C28.6536 16.8338 27.5844 15.818 27.5844 14.3923C27.5844 12.9667 28.6536 11.9598 30.1594 11.9598C31.0861 11.9598 31.8257 12.343 32.191 13.0647L31.3356 13.5637C31.0505 13.1093 30.6228 12.9043 30.1505 12.9043C29.3308 12.9043 28.7071 13.4746 28.7071 14.3923C28.7071 15.319 29.3308 15.8804 30.1505 15.8804C30.6228 15.8804 31.0505 15.6754 31.3356 15.221L32.191 15.72C31.8257 16.4328 31.0861 16.8338 30.1594 16.8338ZM34.9715 11.9598C36.3437 11.9598 37.1367 12.6103 37.1367 13.9825V16.7714H36.0853V16.1922C35.818 16.6021 35.3012 16.8338 34.5883 16.8338C33.5013 16.8338 32.8152 16.2368 32.8152 15.4081C32.8152 14.6151 33.3498 13.9914 34.7933 13.9914H36.0229V13.9201C36.0229 13.2696 35.6308 12.8865 34.8378 12.8865C34.3032 12.8865 33.7508 13.0647 33.3944 13.3588L32.9578 12.5479C33.4656 12.1559 34.2052 11.9598 34.9715 11.9598ZM34.82 16.0229C35.3635 16.0229 35.8358 15.7734 36.0229 15.2834V14.7309H34.8735C34.1161 14.7309 33.9112 15.0161 33.9112 15.3636C33.9112 15.7645 34.2497 16.0229 34.82 16.0229ZM42.1559 10.16H43.2697V16.7714H42.2004V16.1566C41.8262 16.611 41.2738 16.8338 40.6233 16.8338C39.2422 16.8338 38.2175 15.8715 38.2175 14.3923C38.2175 12.9132 39.2422 11.9598 40.6233 11.9598C41.2381 11.9598 41.7817 12.1648 42.1559 12.6014V10.16ZM40.757 15.8804C41.5589 15.8804 42.1737 15.3012 42.1737 14.3923C42.1737 13.4835 41.5589 12.9043 40.757 12.9043C39.955 12.9043 39.3402 13.4835 39.3402 14.3923C39.3402 15.3012 39.955 15.8804 40.757 15.8804ZM49.1997 14.4191C49.1997 14.5082 49.1908 14.6418 49.1819 14.7488H45.4484C45.5821 15.4438 46.1613 15.8893 46.9899 15.8893C47.5245 15.8893 47.9433 15.72 48.2819 15.3725L48.8789 16.0586C48.4512 16.5665 47.7829 16.8338 46.9632 16.8338C45.3683 16.8338 44.3347 15.8091 44.3347 14.3923C44.3347 12.9756 45.3772 11.9598 46.7939 11.9598C48.1839 11.9598 49.1997 12.9311 49.1997 14.4191ZM46.7939 12.8509C46.0722 12.8509 45.5465 13.3142 45.4395 14.0092H48.1394C48.0503 13.3231 47.5245 12.8509 46.7939 12.8509ZM56.2751 11.9598C57.4245 11.9598 58.2264 12.6103 58.2264 14.0448V16.7714H57.1126V14.1874C57.1126 13.3409 56.7206 12.9311 56.0434 12.9311C55.3128 12.9311 54.8049 13.4122 54.8049 14.3567V16.7714H53.6911V14.1874C53.6911 13.3409 53.299 12.9311 52.6219 12.9311C51.8823 12.9311 51.3833 13.4122 51.3833 14.3567V16.7714H50.2695V12.0133H51.3299V12.6192C51.6863 12.1915 52.2387 11.9598 52.8892 11.9598C53.5842 11.9598 54.1633 12.2182 54.493 12.7529C54.8762 12.2628 55.5177 11.9598 56.2751 11.9598ZM62.9486 12.0133H64.0178L61.7903 17.1545C61.3537 18.2327 60.7478 18.5624 59.9548 18.5624C59.4825 18.5624 58.9835 18.402 58.6806 18.1258L59.1261 17.306C59.3399 17.5109 59.6429 17.6357 59.9458 17.6357C60.3379 17.6357 60.5696 17.4486 60.7834 16.9763L60.8636 16.7892L58.7875 12.0133H59.9458L61.4428 15.5329L62.9486 12.0133Z" fill="white"/>
<defs>
<filter id="filter0_dddd_58_2896" x="0.412097" y="0.331967" width="23.9081" height="24.496" filterUnits="userSpaceOnUse" color-interpolation-filters="sRGB">
<feFlood flood-opacity="0" result="BackgroundImageFix"/>
<feColorMatrix in="SourceAlpha" type="matrix" values="0 0 0 0 0 0 0 0 0 0 0 0 0 0 0 0 0 0 127 0" result="hardAlpha"/>
<feOffset dx="0.235161" dy="0.274355"/>
<feGaussianBlur stdDeviation="0.411532"/>
<feColorMatrix type="matrix" values="0 0 0 0 0 0 0 0 0 0 0 0 0 0 0 0 0 0 0.1 0"/>
<feBlend mode="normal" in2="BackgroundImageFix" result="effect1_dropShadow_58_2896"/>
<feColorMatrix in="SourceAlpha" type="matrix" values="0 0 0 0 0 0 0 0 0 0 0 0 0 0 0 0 0 0 127 0" result="hardAlpha"/>
<feOffset dx="0.979839" dy="1.13661"/>
<feGaussianBlur stdDeviation="0.744677"/>
<feColorMatrix type="matrix" values="0 0 0 0 0 0 0 0 0 0 0 0 0 0 0 0 0 0 0.09 0"/>
<feBlend mode="normal" in2="effect1_dropShadow_58_2896" result="effect2_dropShadow_58_2896"/>
<feColorMatrix in="SourceAlpha" type="matrix" values="0 0 0 0 0 0 0 0 0 0 0 0 0 0 0 0 0 0 127 0" result="hardAlpha"/>
<feOffset dx="2.19484" dy="2.54758"/>
<feGaussianBlur stdDeviation="1.01903"/>
<feColorMatrix type="matrix" values="0 0 0 0 0 0 0 0 0 0 0 0 0 0 0 0 0 0 0.05 0"/>
<feBlend mode="normal" in2="effect2_dropShadow_58_2896" result="effect3_dropShadow_58_2896"/>
<feColorMatrix in="SourceAlpha" type="matrix" values="0 0 0 0 0 0 0 0 0 0 0 0 0 0 0 0 0 0 127 0" result="hardAlpha"/>
<feOffset dx="3.91935" dy="4.54645"/>
<feGaussianBlur stdDeviation="1.1954"/>
<feColorMatrix type="matrix" values="0 0 0 0 0 0 0 0 0 0 0 0 0 0 0 0 0 0 0.01 0"/>
<feBlend mode="normal" in2="effect3_dropShadow_58_2896" result="effect4_dropShadow_58_2896"/>
<feBlend mode="normal" in="SourceGraphic" in2="effect4_dropShadow_58_2896" result="shape"/>
</filter>
</defs>
</svg>
